<svg width="274" height="236" viewBox="0 0 274 236" fill="none" xmlns="http://www.w3.org/2000/svg">
<path d="M133.614 173.576C140.129 175.608 144.361 180.617 143.067 184.763C141.773 188.908 135.444 190.621 128.927 188.587C126.312 187.81 123.922 186.418 121.956 184.528L94.4614 175.569L98.9411 162.756L125.57 172.949C128.263 172.512 131.021 172.727 133.614 173.576V173.576Z" fill="#FFB6B6"/>
<path d="M74.7135 79.5648H74.7135C68.1577 78.7883 62.1213 83.2192 60.9 89.7069C56.544 112.847 47.2921 162.888 48.5105 164.106C50.0966 165.692 109.314 183.14 109.314 183.14L116.188 168.336L77.0619 149.301L85.6427 93.955C86.7321 86.9288 81.7743 80.401 74.7135 79.5648V79.5648Z" fill="#E6E6E6"/>
<path d="M146.056 197.647C139.699 200.13 133.266 198.862 131.686 194.817C130.107 190.771 133.979 185.48 140.339 182.997C142.865 181.97 145.601 181.564 148.317 181.811L175.384 171.631L179.89 184.434L152.729 193.111C150.899 195.134 148.611 196.689 146.056 197.647V197.647Z" fill="#A0616A"/>
<path d="M185.088 87.7575H185.088C191.577 86.5422 197.898 90.5575 199.552 96.9484C205.454 119.744 218.047 169.049 216.914 170.347C215.438 172.036 157.526 193.424 157.526 193.424L149.673 179.115L187.432 157.494L175.151 102.85C173.592 95.9125 178.1 89.0664 185.088 87.7575V87.7575Z" fill="#E6E6E6"/>
<path d="M70.0699 82.8888L73.2948 62.7336L51.5271 53.8652L48.3022 84.5013L70.0699 82.8888Z" fill="#FFB6B6"/>
<path d="M197.203 86.0607L193.978 65.9054L215.746 57.0371L218.971 87.6731L197.203 86.0607Z" fill="#A0616A"/>
<path d="M64.5694 69.2141C76.829 69.2141 86.7673 59.2757 86.7673 47.0162C86.7673 34.7567 76.829 24.8184 64.5694 24.8184C52.3099 24.8184 42.3716 34.7567 42.3716 47.0162C42.3716 59.2757 52.3099 69.2141 64.5694 69.2141Z" fill="#FFB6B6"/>
<path d="M62.7975 17.1723C63.4398 17.5473 64.3002 16.98 64.5061 16.2653C64.7121 15.5507 64.4722 14.7919 64.2343 14.0872L63.0366 10.5398C62.1872 8.02393 61.2856 5.42013 59.446 3.50521C56.6693 0.614954 52.2566 -0.120316 48.2842 0.412361C43.1829 1.09642 38.1497 3.85872 35.7777 8.42654C33.4058 12.9944 34.4156 19.3681 38.7016 22.218C32.5931 29.2193 30.4638 37.022 30.8 46.3073C31.1362 55.5927 41.255 64.1383 47.8538 70.6794C49.3274 69.7861 50.6671 65.5998 49.8568 64.079C49.0464 62.5582 50.2075 60.7962 49.2039 59.3954C48.2003 57.9946 47.3606 60.2251 48.3752 58.8322C49.0155 57.9533 46.5166 55.9313 47.4683 55.4052C52.0714 52.8608 53.6024 47.1232 56.4935 42.7295C59.9806 37.4298 65.9489 33.8409 72.2649 33.2455C75.7441 32.9175 79.419 33.5115 82.2708 35.5314C85.1226 37.5513 86.9689 41.1608 86.3076 44.5924C88.0203 42.8534 88.8728 40.3049 88.5513 37.8854C88.2297 35.4659 86.7411 33.2285 84.6337 31.9972C85.9151 27.7597 84.8173 22.8852 81.8431 19.6061C78.8689 16.3269 66.8038 16.8854 62.4617 17.7484" fill="#2F2E41"/>
<path d="M62.1238 33.373C56.3727 33.9939 52.2203 38.9755 48.714 43.5761C46.693 46.2278 44.576 49.1561 44.6268 52.4897C44.6781 55.8601 46.9315 58.751 48.0085 61.9451C49.7688 67.1659 48.0532 73.3776 43.8628 76.9549C48.0033 77.7406 52.4794 74.636 53.1942 70.4826C54.0263 65.6476 50.3611 60.981 50.7952 56.0941C51.1776 51.7887 54.5704 48.4752 57.4548 45.2561C60.3393 42.037 63.0482 37.7652 61.7213 33.6516" fill="#2F2E41"/>
<path d="M72.5848 79.5102L47.4535 72.6367L21.5457 83.2113L10.4424 170.98L73.89 173.095V158.938C73.89 158.938 84.9933 145.073 82.8784 124.981L80.7635 104.889L72.5848 79.5102V79.5102Z" fill="#E6E6E6"/>
<path d="M84.2002 115.198L34.4996 112.555L21.017 150.888C21.017 150.888 4.362 173.887 1.71835 190.807C-0.9253 207.726 0.660888 231.519 0.660888 231.519H80.2285L73.89 158.937C73.89 158.937 88.6882 126.83 86.9729 121.279C85.2577 115.727 84.2002 115.198 84.2002 115.198V115.198Z" fill="#3F3D56"/>
<path d="M46.132 72.9004H33.9712V117.842H46.132V72.9004Z" fill="#3F3D56"/>
<path d="M83.671 82.9453H71.5103V119.956H83.671V82.9453Z" fill="#3F3D56"/>
<path d="M193.63 83.7387L218.762 76.8652L244.669 87.4398L255.773 175.209L192.325 177.324V163.167C192.325 163.167 185.835 148.693 192.061 129.474C198.141 110.704 185.452 109.118 185.452 109.118L193.63 83.7387V83.7387Z" fill="#E6E6E6"/>
<path d="M182.015 119.429L231.716 116.785L245.198 155.118C245.198 155.118 253.394 181.29 256.037 198.21C258.681 215.129 265.554 235.749 265.554 235.749H185.987L183.601 165.957L182.015 119.429V119.429Z" fill="#3F3D56"/>
<path d="M220.084 122.072H232.245V77.1302H220.084V122.072Z" fill="#3F3D56"/>
<path d="M182.544 124.188H194.705V87.1764H182.544V124.188Z" fill="#3F3D56"/>
<path d="M202.119 72.2974C217.474 72.2974 229.921 59.85 229.921 44.4954C229.921 29.1407 217.474 16.6934 202.119 16.6934C186.764 16.6934 174.317 29.1407 174.317 44.4954C174.317 59.85 186.764 72.2974 202.119 72.2974Z" fill="#A0616A"/>
<path d="M229.465 59.5782C229.465 59.5782 216.014 43.4372 210.634 44.7822C205.254 46.1273 208.616 48.145 208.616 48.145L195.166 33.349C195.166 33.349 184.405 29.3137 174.317 42.0921C174.317 42.0921 168.264 31.3314 174.317 25.2785C180.37 19.2256 182.387 19.8981 183.732 16.5354C185.077 13.1727 194.493 10.4825 194.493 10.4825C194.493 10.4825 193.953 5.64229 196.913 8.06239C199.873 10.4825 207.266 10.4825 207.266 10.4825C207.266 10.4825 207.308 7.79232 210.316 10.4825C213.324 13.1727 216.687 11.8276 216.687 11.8276C216.687 11.8276 216.687 16.4824 219.041 16.5089C221.395 16.5354 225.43 13.1727 226.103 15.8628C226.775 18.553 231.483 19.8981 232.155 27.9686C232.828 36.0392 229.465 59.5782 229.465 59.5782V59.5782Z" fill="#2F2E41"/>
<path d="M126.354 101.072L147.879 141.765L144.928 143.325L123.403 102.633C123.091 102.042 123.317 101.309 123.907 100.997L124.717 100.568C125.308 100.256 126.041 100.481 126.354 101.072V101.072Z" fill="#3F3D56"/>
<path d="M162.214 157.143C156.738 155.731 151.009 158.231 148.261 163.174C144.82 169.364 140.889 174.441 142.205 162.34C143.654 149.017 135.839 138.257 141.981 135.008C148.123 131.759 154.465 141.633 164.448 150.574C173.7 158.86 168.365 158.729 162.214 157.143V157.143Z" fill="#FFA629"/>
<path d="M130.516 109.307C136.724 106.473 143.219 107.378 145.022 111.329C146.825 115.28 143.254 120.78 137.044 123.615C134.579 124.781 131.87 125.34 129.144 125.245L102.69 136.923L97.4741 124.391L124.108 114.21C125.822 112.087 128.019 110.406 130.516 109.307V109.307Z" fill="#FFB6B6"/>
<path d="M23.9094 78.6082L23.9094 78.6082C18.5091 82.4054 16.9712 89.7338 20.3917 95.3802C32.5919 115.52 59.0994 158.959 60.8199 159.053C63.0598 159.176 118.804 132.647 118.804 132.647L114.042 117.035L72.2012 128.973L41.6525 82.0302C37.7743 76.0708 29.7257 74.5185 23.9094 78.6082V78.6082Z" fill="#E6E6E6"/>
<path d="M133.162 171.799L204.67 133.973L213.448 150.568C221.02 164.882 215.546 182.651 201.231 190.223L181.596 200.61C167.281 208.182 149.512 202.708 141.94 188.393L133.162 171.799V171.799Z" fill="#FF6B6B"/>
<path d="M193.745 197.225C187.538 200.06 181.043 199.156 179.239 195.205C177.436 191.254 181.006 185.754 187.216 182.918C189.681 181.752 192.389 181.192 195.115 181.287L221.568 169.605L226.785 182.136L200.153 192.322C198.44 194.444 196.242 196.126 193.745 197.225V197.225Z" fill="#A0616A"/>
<path d="M247.547 85.3812H247.547C254.103 84.6047 260.139 89.0356 261.361 95.5233C265.717 118.664 274.969 168.704 273.75 169.922C272.164 171.509 212.946 188.957 212.946 188.957L206.073 174.152L245.199 155.118L236.618 99.7714C235.529 92.7452 240.486 86.2174 247.547 85.3812V85.3812Z" fill="#E6E6E6"/>
</svg>
