<svg width="130" height="19" viewBox="0 0 130 19" fill="none" xmlns="http://www.w3.org/2000/svg">
<path d="M35.4432 7.57955H32.6023C32.5644 7.28788 32.4867 7.02462 32.3693 6.78977C32.2519 6.55492 32.0966 6.35417 31.9034 6.1875C31.7102 6.02083 31.4811 5.89394 31.2159 5.80682C30.9545 5.71591 30.6648 5.67045 30.3466 5.67045C29.7822 5.67045 29.2955 5.80871 28.8864 6.08523C28.4811 6.36174 28.1686 6.76136 27.9489 7.28409C27.733 7.80682 27.625 8.43939 27.625 9.18182C27.625 9.95455 27.7348 10.6023 27.9545 11.125C28.178 11.6439 28.4905 12.036 28.892 12.3011C29.2973 12.5625 29.7765 12.6932 30.3295 12.6932C30.6402 12.6932 30.9223 12.6534 31.1761 12.5739C31.4337 12.4943 31.6591 12.3788 31.8523 12.2273C32.0492 12.072 32.2102 11.8845 32.3352 11.6648C32.464 11.4413 32.553 11.1894 32.6023 10.9091L35.4432 10.9261C35.3939 11.4413 35.2443 11.9489 34.9943 12.4489C34.7481 12.9489 34.4091 13.4053 33.9773 13.8182C33.5455 14.2273 33.0189 14.553 32.3977 14.7955C31.7803 15.0379 31.072 15.1591 30.2727 15.1591C29.2197 15.1591 28.2765 14.928 27.4432 14.4659C26.6136 14 25.9583 13.322 25.4773 12.4318C24.9962 11.5417 24.7557 10.4583 24.7557 9.18182C24.7557 7.90152 25 6.81629 25.4886 5.92614C25.9773 5.03598 26.6383 4.35985 27.4716 3.89773C28.3049 3.43561 29.2386 3.20455 30.2727 3.20455C30.9773 3.20455 31.6288 3.30303 32.2273 3.5C32.8258 3.69318 33.3523 3.97727 33.8068 4.35227C34.2614 4.72348 34.6307 5.17992 34.9148 5.72159C35.1989 6.26326 35.375 6.88258 35.4432 7.57955ZM37.0526 15V3.36364H41.8594C42.7306 3.36364 43.4825 3.52083 44.1151 3.83523C44.7514 4.14583 45.242 4.5928 45.5866 5.17614C45.9313 5.75568 46.1037 6.44318 46.1037 7.23864C46.1037 8.04545 45.9276 8.73106 45.5753 9.29545C45.223 9.85606 44.723 10.2841 44.0753 10.5795C43.4276 10.8712 42.6605 11.017 41.7741 11.017H38.7344V8.80114H41.2514C41.6757 8.80114 42.0298 8.74621 42.3139 8.63636C42.6018 8.52273 42.8196 8.35227 42.9673 8.125C43.1151 7.89394 43.1889 7.59848 43.1889 7.23864C43.1889 6.87879 43.1151 6.58144 42.9673 6.34659C42.8196 6.10795 42.6018 5.92992 42.3139 5.8125C42.026 5.69129 41.6719 5.63068 41.2514 5.63068H39.8651V15H37.0526ZM43.6037 9.68182L46.5014 15H43.4332L40.5923 9.68182H43.6037ZM50.1634 15H47.1406L51.0668 3.36364H54.8111L58.7372 15H55.7145L52.9815 6.29545H52.8906L50.1634 15ZM49.7599 10.4205H56.0781V12.5568H49.7599V10.4205ZM61.0696 3.36364L63.6719 11.8864H63.7685L66.3707 3.36364H69.5185L65.5923 15H61.848L57.9219 3.36364H61.0696ZM70.7713 15V3.36364H78.8849V5.64773H73.5838V8.03409H78.4702V10.3239H73.5838V12.7159H78.8849V15H70.7713ZM83.1634 15H80.1406L84.0668 3.36364H87.8111L91.7372 15H88.7145L85.9815 6.29545H85.8906L83.1634 15ZM82.7599 10.4205H89.0781V12.5568H82.7599V10.4205ZM94.5142 15L91.1278 3.36364H94.2358L95.9915 10.9886H96.0881L98.0938 3.36364H100.628L102.634 11.0057H102.73L104.491 3.36364H107.594L104.213 15H101.503L99.4062 7.94318H99.3153L97.2188 15H94.5142ZM110.007 15H106.984L110.911 3.36364H114.655L118.581 15H115.558L112.825 6.29545H112.734L110.007 15ZM109.604 10.4205H115.922V12.5568H109.604V10.4205ZM118.067 3.36364H121.209L123.669 8.23295H123.771L126.232 3.36364H129.374L125.118 11.1136V15H122.322V11.1136L118.067 3.36364Z" fill="#34393C"/>
<circle cx="8" cy="9" r="8" fill="#FCC62E"/>
</svg>
